<svg viewBox="0 0 150 150" fill="none" xmlns="http://www.w3.org/2000/svg">
<path d="M150 133.333C150 137.754 148.244 141.993 145.118 145.118C141.993 148.244 137.754 150 133.333 150H16.6667C12.2464 150 8.00716 148.244 4.88156 145.118C1.75595 141.993 0 137.754 0 133.333V16.6667C0 12.2464 1.75595 8.00716 4.88156 4.88156C8.00716 1.75595 12.2464 0 16.6667 0H133.333C137.754 0 141.993 1.75595 145.118 4.88156C148.244 8.00716 150 12.2464 150 16.6667V133.333Z" fill="#2C5EA8"/>
<path d="M62.8625 84.9163H87.4083L75.3958 47.4496H75.1375L62.8625 84.9163ZM61.4417 38.0163C63.6417 32.0746 68.6792 27.2955 75.2667 27.2955C82.1125 27.2955 86.8958 31.8163 89.0875 38.0163L114.412 108.295C115.183 110.362 115.446 112.175 115.446 113.079C115.446 118.116 111.308 121.604 106.533 121.604C101.104 121.604 98.3917 118.762 97.1 114.887L93.225 102.741H57.3083L53.4333 114.758C52.1417 118.762 49.425 121.604 44.1292 121.604C38.9625 121.604 34.5708 117.729 34.5708 112.562C34.5708 110.495 35.2167 108.945 35.475 108.295L61.4417 38.0163Z" fill="white"/>
</svg>